<?xml version="1.0" standalone="no"?>
<!DOCTYPE svg PUBLIC "-//W3C//DTD SVG 20010904//EN"
 "http://www.w3.org/TR/2001/REC-SVG-20010904/DTD/svg10.dtd">
<svg version="1.0" xmlns="http://www.w3.org/2000/svg"
 width="300.000000pt" height="300.000000pt" viewBox="0 0 300.000000 300.000000"
 preserveAspectRatio="xMidYMid meet">
<metadata>
Created by potrace 1.10, written by Peter Selinger 2001-2011
</metadata>
<g transform="translate(0.000000,300.000000) scale(0.100000,-0.100000)"
fill="#000000" stroke="none">
<path d="M1765 2344 c-143 -271 -262 -494 -265 -494 -3 0 -133 221 -289 490
-155 270 -287 490 -292 490 -5 0 -77 -45 -159 -100 -127 -85 -149 -103 -141
-118 5 -9 132 -217 281 -462 150 -245 275 -450 277 -457 4 -10 -107 -13 -546
-13 l-551 0 0 -180 0 -180 551 0 c439 0 550 -3 546 -13 -2 -7 -127 -212 -277
-457 -149 -245 -276 -453 -281 -462 -8 -15 14 -33 141 -118 82 -55 154 -100
159 -100 5 0 137 220 292 490 156 269 286 490 289 490 3 0 42 -71 87 -158 160
-304 434 -826 437 -829 1 -1 73 45 160 103 l157 105 -24 42 c-56 97 -488 878
-493 892 -5 13 55 15 545 15 l551 0 0 180 0 180 -551 0 c-490 0 -550 2 -545
15 5 14 437 795 493 892 l24 42 -148 99 c-81 54 -153 101 -158 104 -6 4 -122
-206 -270 -488z"/>
</g>
</svg>
